<?xml version="1.0" encoding="UTF-8" standalone="no"?>
<!DOCTYPE svg PUBLIC "-//W3C//DTD SVG 1.1//EN" "http://www.w3.org/Graphics/SVG/1.1/DTD/svg11.dtd">
<svg width="100%" height="100%" viewBox="0 0 500 500" version="1.1" xmlns="http://www.w3.org/2000/svg" xmlns:xlink="http://www.w3.org/1999/xlink" xml:space="preserve" xmlns:serif="http://www.serif.com/" style="fill-rule:evenodd;clip-rule:evenodd;stroke-linecap:round;stroke-linejoin:round;stroke-miterlimit:60;">
    <path id="profile-mg" d="M250,85.718C293.118,85.718 328.125,120.725 328.125,163.843C328.125,206.962 293.118,241.968 250,241.968C206.882,241.968 171.875,206.962 171.875,163.843C171.875,120.725 206.882,85.718 250,85.718ZM125,434.203L125,296.59C125,273.375 149.815,264.498 166.667,261.674C249.053,247.866 250.947,247.866 333.333,261.674C350.185,264.498 375,276.881 375,296.59L375,434.203M250,25C374.181,25 475,125.819 475,250C475,374.181 374.181,475 250,475C125.819,475 25,374.181 25,250C25,125.819 125.819,25 250,25Z" style="fill:none;stroke:white;stroke-width:40px;"/>
</svg>
